<mxfile host="65bd71144e" pages="2">
    <diagram id="R2lEEEUBdFMjLlhIrx00" name="Tabelle">
        <mxGraphModel dx="809" dy="534" grid="1" gridSize="10" guides="1" tooltips="1" connect="1" arrows="1" fold="1" page="1" pageScale="1" pageWidth="850" pageHeight="1100" math="0" shadow="0" extFonts="Permanent Marker^https://fonts.googleapis.com/css?family=Permanent+Marker">
            <root>
                <mxCell id="0"/>
                <mxCell id="1" parent="0"/>
                <mxCell id="G2lpPUG1MoblikFVgjj4-10" value="Utenti" style="swimlane;fontStyle=0;childLayout=stackLayout;horizontal=1;startSize=26;fillColor=#ffe6cc;horizontalStack=0;resizeParent=1;resizeParentMax=0;resizeLast=0;collapsible=1;marginBottom=0;swimlaneFillColor=#ffffff;align=center;strokeWidth=1;fontSize=13;strokeColor=#d79b00;" parent="1" vertex="1">
                    <mxGeometry x="80" y="110" width="160" height="144" as="geometry"/>
                </mxCell>
                <mxCell id="G2lpPUG1MoblikFVgjj4-11" value="EmailÂ (String)" style="shape=partialRectangle;top=0;left=0;right=0;bottom=1;align=left;verticalAlign=middle;fillColor=none;spacingLeft=34;spacingRight=4;overflow=hidden;rotatable=0;points=[[0,0.5],[1,0.5]];portConstraint=eastwest;dropTarget=0;fontStyle=5;" parent="G2lpPUG1MoblikFVgjj4-10" vertex="1">
                    <mxGeometry y="26" width="160" height="30" as="geometry"/>
                </mxCell>
                <mxCell id="G2lpPUG1MoblikFVgjj4-12" value="PK" style="shape=partialRectangle;top=0;left=0;bottom=0;fillColor=none;align=left;verticalAlign=middle;spacingLeft=4;spacingRight=4;overflow=hidden;rotatable=0;points=[];portConstraint=eastwest;part=1;fontStyle=1" parent="G2lpPUG1MoblikFVgjj4-11" vertex="1" connectable="0">
                    <mxGeometry width="30" height="30" as="geometry"/>
                </mxCell>
                <mxCell id="G2lpPUG1MoblikFVgjj4-13" value="Nome utente (String)" style="shape=partialRectangle;top=0;left=0;right=0;bottom=0;align=left;verticalAlign=top;fillColor=none;spacingLeft=34;spacingRight=4;overflow=hidden;rotatable=0;points=[[0,0.5],[1,0.5]];portConstraint=eastwest;dropTarget=0;fontStyle=2" parent="G2lpPUG1MoblikFVgjj4-10" vertex="1">
                    <mxGeometry y="56" width="160" height="26" as="geometry"/>
                </mxCell>
                <mxCell id="G2lpPUG1MoblikFVgjj4-14" value="" style="shape=partialRectangle;top=0;left=0;bottom=0;fillColor=none;align=left;verticalAlign=top;spacingLeft=4;spacingRight=4;overflow=hidden;rotatable=0;points=[];portConstraint=eastwest;part=1;fontStyle=2" parent="G2lpPUG1MoblikFVgjj4-13" vertex="1" connectable="0">
                    <mxGeometry width="30" height="26" as="geometry"/>
                </mxCell>
                <mxCell id="G2lpPUG1MoblikFVgjj4-15" value="password (md5)" style="shape=partialRectangle;top=0;left=0;right=0;bottom=0;align=left;verticalAlign=top;fillColor=none;spacingLeft=34;spacingRight=4;overflow=hidden;rotatable=0;points=[[0,0.5],[1,0.5]];portConstraint=eastwest;dropTarget=0;" parent="G2lpPUG1MoblikFVgjj4-10" vertex="1">
                    <mxGeometry y="82" width="160" height="26" as="geometry"/>
                </mxCell>
                <mxCell id="G2lpPUG1MoblikFVgjj4-16" value="" style="shape=partialRectangle;top=0;left=0;bottom=0;fillColor=none;align=left;verticalAlign=top;spacingLeft=4;spacingRight=4;overflow=hidden;rotatable=0;points=[];portConstraint=eastwest;part=1;" parent="G2lpPUG1MoblikFVgjj4-15" vertex="1" connectable="0">
                    <mxGeometry width="30" height="26" as="geometry"/>
                </mxCell>
                <mxCell id="G2lpPUG1MoblikFVgjj4-17" value="ListaAmici (list Email)" style="shape=partialRectangle;top=0;left=0;right=0;bottom=0;align=left;verticalAlign=top;fillColor=none;spacingLeft=34;spacingRight=4;overflow=hidden;rotatable=0;points=[[0,0.5],[1,0.5]];portConstraint=eastwest;dropTarget=0;" parent="G2lpPUG1MoblikFVgjj4-10" vertex="1">
                    <mxGeometry y="108" width="160" height="26" as="geometry"/>
                </mxCell>
                <mxCell id="G2lpPUG1MoblikFVgjj4-18" value="" style="shape=partialRectangle;top=0;left=0;bottom=0;fillColor=none;align=left;verticalAlign=top;spacingLeft=4;spacingRight=4;overflow=hidden;rotatable=0;points=[];portConstraint=eastwest;part=1;" parent="G2lpPUG1MoblikFVgjj4-17" vertex="1" connectable="0">
                    <mxGeometry width="30" height="26" as="geometry"/>
                </mxCell>
                <mxCell id="G2lpPUG1MoblikFVgjj4-19" value="" style="shape=partialRectangle;top=0;left=0;right=0;bottom=0;align=left;verticalAlign=top;fillColor=none;spacingLeft=34;spacingRight=4;overflow=hidden;rotatable=0;points=[[0,0.5],[1,0.5]];portConstraint=eastwest;dropTarget=0;" parent="G2lpPUG1MoblikFVgjj4-10" vertex="1">
                    <mxGeometry y="134" width="160" height="10" as="geometry"/>
                </mxCell>
                <mxCell id="G2lpPUG1MoblikFVgjj4-20" value="" style="shape=partialRectangle;top=0;left=0;bottom=0;fillColor=none;align=left;verticalAlign=top;spacingLeft=4;spacingRight=4;overflow=hidden;rotatable=0;points=[];portConstraint=eastwest;part=1;" parent="G2lpPUG1MoblikFVgjj4-19" vertex="1" connectable="0">
                    <mxGeometry width="30" height="10" as="geometry"/>
                </mxCell>
                <mxCell id="G2lpPUG1MoblikFVgjj4-21" value="Recensione" style="swimlane;fontStyle=0;childLayout=stackLayout;horizontal=1;startSize=26;fillColor=#ffe6cc;horizontalStack=0;resizeParent=1;resizeParentMax=0;resizeLast=0;collapsible=1;marginBottom=0;swimlaneFillColor=#ffffff;align=center;strokeWidth=1;fontSize=13;strokeColor=#d79b00;" parent="1" vertex="1">
                    <mxGeometry x="480" y="110" width="160" height="144" as="geometry"/>
                </mxCell>
                <mxCell id="G2lpPUG1MoblikFVgjj4-22" value="id" style="shape=partialRectangle;top=0;left=0;right=0;bottom=1;align=left;verticalAlign=middle;fillColor=none;spacingLeft=34;spacingRight=4;overflow=hidden;rotatable=0;points=[[0,0.5],[1,0.5]];portConstraint=eastwest;dropTarget=0;fontStyle=5;" parent="G2lpPUG1MoblikFVgjj4-21" vertex="1">
                    <mxGeometry y="26" width="160" height="30" as="geometry"/>
                </mxCell>
                <mxCell id="G2lpPUG1MoblikFVgjj4-23" value="PK" style="shape=partialRectangle;top=0;left=0;bottom=0;fillColor=none;align=left;verticalAlign=middle;spacingLeft=4;spacingRight=4;overflow=hidden;rotatable=0;points=[];portConstraint=eastwest;part=1;fontStyle=1" parent="G2lpPUG1MoblikFVgjj4-22" vertex="1" connectable="0">
                    <mxGeometry width="30" height="30" as="geometry"/>
                </mxCell>
                <mxCell id="G2lpPUG1MoblikFVgjj4-24" value="Titolo (string)" style="shape=partialRectangle;top=0;left=0;right=0;bottom=0;align=left;verticalAlign=top;fillColor=none;spacingLeft=34;spacingRight=4;overflow=hidden;rotatable=0;points=[[0,0.5],[1,0.5]];portConstraint=eastwest;dropTarget=0;fontStyle=2" parent="G2lpPUG1MoblikFVgjj4-21" vertex="1">
                    <mxGeometry y="56" width="160" height="26" as="geometry"/>
                </mxCell>
                <mxCell id="G2lpPUG1MoblikFVgjj4-25" value="" style="shape=partialRectangle;top=0;left=0;bottom=0;fillColor=none;align=left;verticalAlign=top;spacingLeft=4;spacingRight=4;overflow=hidden;rotatable=0;points=[];portConstraint=eastwest;part=1;fontStyle=2" parent="G2lpPUG1MoblikFVgjj4-24" vertex="1" connectable="0">
                    <mxGeometry width="30" height="26" as="geometry"/>
                </mxCell>
                <mxCell id="G2lpPUG1MoblikFVgjj4-26" value="Contenuto (String)" style="shape=partialRectangle;top=0;left=0;right=0;bottom=0;align=left;verticalAlign=top;fillColor=none;spacingLeft=34;spacingRight=4;overflow=hidden;rotatable=0;points=[[0,0.5],[1,0.5]];portConstraint=eastwest;dropTarget=0;" parent="G2lpPUG1MoblikFVgjj4-21" vertex="1">
                    <mxGeometry y="82" width="160" height="26" as="geometry"/>
                </mxCell>
                <mxCell id="G2lpPUG1MoblikFVgjj4-27" value="" style="shape=partialRectangle;top=0;left=0;bottom=0;fillColor=none;align=left;verticalAlign=top;spacingLeft=4;spacingRight=4;overflow=hidden;rotatable=0;points=[];portConstraint=eastwest;part=1;" parent="G2lpPUG1MoblikFVgjj4-26" vertex="1" connectable="0">
                    <mxGeometry width="30" height="26" as="geometry"/>
                </mxCell>
                <mxCell id="G2lpPUG1MoblikFVgjj4-28" value="timestamp (ora)" style="shape=partialRectangle;top=0;left=0;right=0;bottom=0;align=left;verticalAlign=top;fillColor=none;spacingLeft=34;spacingRight=4;overflow=hidden;rotatable=0;points=[[0,0.5],[1,0.5]];portConstraint=eastwest;dropTarget=0;" parent="G2lpPUG1MoblikFVgjj4-21" vertex="1">
                    <mxGeometry y="108" width="160" height="26" as="geometry"/>
                </mxCell>
                <mxCell id="G2lpPUG1MoblikFVgjj4-29" value="" style="shape=partialRectangle;top=0;left=0;bottom=0;fillColor=none;align=left;verticalAlign=top;spacingLeft=4;spacingRight=4;overflow=hidden;rotatable=0;points=[];portConstraint=eastwest;part=1;" parent="G2lpPUG1MoblikFVgjj4-28" vertex="1" connectable="0">
                    <mxGeometry width="30" height="26" as="geometry"/>
                </mxCell>
                <mxCell id="G2lpPUG1MoblikFVgjj4-30" value="" style="shape=partialRectangle;top=0;left=0;right=0;bottom=0;align=left;verticalAlign=top;fillColor=none;spacingLeft=34;spacingRight=4;overflow=hidden;rotatable=0;points=[[0,0.5],[1,0.5]];portConstraint=eastwest;dropTarget=0;" parent="G2lpPUG1MoblikFVgjj4-21" vertex="1">
                    <mxGeometry y="134" width="160" height="10" as="geometry"/>
                </mxCell>
                <mxCell id="G2lpPUG1MoblikFVgjj4-31" value="" style="shape=partialRectangle;top=0;left=0;bottom=0;fillColor=none;align=left;verticalAlign=top;spacingLeft=4;spacingRight=4;overflow=hidden;rotatable=0;points=[];portConstraint=eastwest;part=1;" parent="G2lpPUG1MoblikFVgjj4-30" vertex="1" connectable="0">
                    <mxGeometry width="30" height="10" as="geometry"/>
                </mxCell>
            </root>
        </mxGraphModel>
    </diagram>
    <diagram id="UWCNycHmbckPEPVehjKQ" name="ER">
        <mxGraphModel dx="809" dy="534" grid="1" gridSize="10" guides="1" tooltips="1" connect="1" arrows="1" fold="1" page="1" pageScale="1" pageWidth="850" pageHeight="1100" math="0" shadow="0">
            <root>
                <mxCell id="FPTqRgZp3I3cbCf6SjXw-0"/>
                <mxCell id="FPTqRgZp3I3cbCf6SjXw-1" parent="FPTqRgZp3I3cbCf6SjXw-0"/>
                <mxCell id="ibfdDhAp0E0P4WWBXNNC-9" style="rounded=0;orthogonalLoop=1;jettySize=auto;html=1;edgeStyle=orthogonalEdgeStyle;exitX=1;exitY=0.5;exitDx=0;exitDy=0;entryX=0;entryY=0.5;entryDx=0;entryDy=0;" parent="FPTqRgZp3I3cbCf6SjXw-1" source="FPTqRgZp3I3cbCf6SjXw-2" target="ibfdDhAp0E0P4WWBXNNC-1" edge="1">
                    <mxGeometry relative="1" as="geometry">
                        <mxPoint x="340" y="260" as="targetPoint"/>
                    </mxGeometry>
                </mxCell>
                <mxCell id="FPTqRgZp3I3cbCf6SjXw-2" value="Utente" style="whiteSpace=wrap;html=1;align=center;" parent="FPTqRgZp3I3cbCf6SjXw-1" vertex="1">
                    <mxGeometry x="110" y="240" width="100" height="40" as="geometry"/>
                </mxCell>
                <mxCell id="FPTqRgZp3I3cbCf6SjXw-3" value="Email" style="ellipse;whiteSpace=wrap;html=1;align=center;" parent="FPTqRgZp3I3cbCf6SjXw-1" vertex="1">
                    <mxGeometry x="80" y="110" width="100" height="40" as="geometry"/>
                </mxCell>
                <mxCell id="FPTqRgZp3I3cbCf6SjXw-4" value="Password" style="ellipse;whiteSpace=wrap;html=1;align=center;" parent="FPTqRgZp3I3cbCf6SjXw-1" vertex="1">
                    <mxGeometry x="260" y="90" width="100" height="40" as="geometry"/>
                </mxCell>
                <mxCell id="ibfdDhAp0E0P4WWBXNNC-0" value="Recensioni" style="whiteSpace=wrap;html=1;align=center;" parent="FPTqRgZp3I3cbCf6SjXw-1" vertex="1">
                    <mxGeometry x="550" y="240" width="100" height="40" as="geometry"/>
                </mxCell>
                <mxCell id="ibfdDhAp0E0P4WWBXNNC-1" value="siRiferisce" style="shape=rhombus;perimeter=rhombusPerimeter;whiteSpace=wrap;html=1;align=center;" parent="FPTqRgZp3I3cbCf6SjXw-1" vertex="1">
                    <mxGeometry x="360" y="230" width="120" height="60" as="geometry"/>
                </mxCell>
            </root>
        </mxGraphModel>
    </diagram>
</mxfile>